<?xml version="1.0" standalone="yes"?>
<svg xmlns="http://www.w3.org/2000/svg" width="500" height="500">
<path style="fill:#ffffff; stroke:none;" d="M0 0L0 500L500 500L500 0L0 0z"/>
<path style="fill:#9ec1ad; stroke:none;" d="M31 202L31 298L32 298L32 231L31 202z"/>
<path style="fill:#010101; stroke:none;" d="M32 202L32 298L469 298L469 202L32 202z"/>
<path style="fill:#9ec1ad; stroke:none;" d="M469 202L469 298L470 298L470 231L469 202z"/>
<path style="fill:#757575; stroke:none;" d="M34 205L34 295L35 295L35 233L34 205z"/>
<path style="fill:#ffffff; stroke:none;" d="M35 205L35 295L466 295L466 205L35 205z"/>
<path style="fill:#757575; stroke:none;" d="M466 205L466 295L467 295L467 233L466 205z"/>
<path style="fill:#038239; stroke:none;" d="M50 211L50 289L283 289L283 211L50 211z"/>
<path style="fill:#9ec1ad; stroke:none;" d="M116 232L116 233L122 233L116 232z"/>
<path style="fill:#757575; stroke:none;" d="M122 232L123 233L122 232z"/>
<path style="fill:#9ec1ad; stroke:none;" d="M190 232L190 233L197 233L190 232z"/>
<path style="fill:#757575; stroke:none;" d="M224 232L225 233L224 232z"/>
<path style="fill:#9ec1ad; stroke:none;" d="M225 232L225 233L231 233L225 232M62 233L62 259L63 259L62 233z"/>
<path style="fill:#ffffff; stroke:none;" d="M63 233L63 259C68.4909 259 75.1675 259.671 79.892 256.272C86.8688 251.253 86.218 239.486 78.956 235.09C74.2791 232.258 68.2265 233 63 233z"/>
<path style="fill:#9ec1ad; stroke:none;" d="M75.6667 233.333L76.3333 233.667L75.6667 233.333z"/>
<path style="fill:#ffffff; stroke:none;" d="M94 233L94 259L97 259L97 233L94 233z"/>
<path style="fill:#9ec1ad; stroke:none;" d="M113 233L114 234L113 233z"/>
<path style="fill:#ffffff; stroke:none;" d="M132 245L119 245L119 248L129 248C128.17 250.098 127.414 251.896 125.656 253.432C111.235 266.03 101.919 233.836 120 235.722C124.209 236.161 127.095 239.786 131 241C126.209 227.24 105.103 232.521 106.225 247C107.563 264.262 131.238 261.393 132 245z"/>
<path style="fill:#9ec1ad; stroke:none;" d="M124 233L125 234L124 233M141 233L141 259L142 259L141 233z"/>
<path style="fill:#ffffff; stroke:none;" d="M142 233L142 259L144 259L144 233L142 233z"/>
<path style="fill:#9ec1ad; stroke:none;" d="M144 233L144 259L145 259L144 233M152 233L152 236L153 236L152 233z"/>
<path style="fill:#ffffff; stroke:none;" d="M153 233L153 236L162 236L162 259L164 259L164 236L173 236L173 233L153 233z"/>
<path style="fill:#9ec1ad; stroke:none;" d="M173 233L173 236L174 236L173 233M187 233L188 234L187 233z"/>
<path style="fill:#ffffff; stroke:none;" d="M188.004 233.742C172.001 239.942 183.014 264.551 198.996 257.991C214.933 251.449 203.941 227.569 188.004 233.742z"/>
<path style="fill:#9ec1ad; stroke:none;" d="M199 233L200 234L199 233z"/>
<path style="fill:#757575; stroke:none;" d="M221 233L222 234L221 233z"/>
<path style="fill:#9ec1ad; stroke:none;" d="M222 233L223 234L222 233z"/>
<path style="fill:#ffffff; stroke:none;" d="M223.001 233.573C207.116 238.152 215.748 263.107 231.999 258.427C248.697 253.619 239.906 228.699 223.001 233.573z"/>
<path style="fill:#9ec1ad; stroke:none;" d="M233 233L234 234L233 233z"/>
<path style="fill:#ffffff; stroke:none;" d="M250 233L250 259L253 259L253 239C258.26 245.08 263.032 256.657 271 259L271 233L268 233L268 253C262.72 246.809 258.126 235.385 250 233z"/>
<path style="fill:#9ec1ad; stroke:none;" d="M253 233L254 234L253 233z"/>
<path style="fill:#757575; stroke:none;" d="M267 233L267 252L268 252L267 233z"/>
<path style="fill:#9ec1ad; stroke:none;" d="M78 234L79 235L78 234M111 234L112 235L111 234M126 234L127 235L126 234M185 234L186 235L185 234z"/>
<path style="fill:#757575; stroke:none;" d="M201 234L202 235L201 234z"/>
<path style="fill:#9ec1ad; stroke:none;" d="M235 234L236 235L235 234M254 234L255 235L254 234M110 235L111 236L110 235M117 235L117 236L121 236L117 235M184 235L185 236L184 235M192 235L192 236L195 236L192 235M202 235L203 236L202 235M218 235L219 236L218 235M226 235L226 236L230 236L226 235M236 235L237 236L236 235z"/>
<path style="fill:#038239; stroke:none;" d="M66 236L66 256C84.9011 255.844 85.0043 236.052 66 236z"/>
<path style="fill:#9ec1ad; stroke:none;" d="M74.6667 236.333L75.3333 236.667L74.6667 236.333M81 236L82 237L81 236M109 236L110 237L109 236M114 236L115 237L114 236z"/>
<path style="fill:#757575; stroke:none;" d="M115 236L116 237L115 236z"/>
<path style="fill:#9ec1ad; stroke:none;" d="M123 236L124 237L123 236M161 236L161 259L162 259L161 236M164 236L164 259L165 259L164 236M183 236L184 237L183 236M189 236L190 237L189 236z"/>
<path style="fill:#038239; stroke:none;" d="M190.04 236.654C178.389 240.438 184.994 259.921 196.985 255.257C208.426 250.807 202.282 232.678 190.04 236.654z"/>
<path style="fill:#9ec1ad; stroke:none;" d="M197 236L198 237L197 236M203 236L204 237L203 236M217 236L218 237L217 236M223 236L224 237L223 236z"/>
<path style="fill:#038239; stroke:none;" d="M224.015 236.743C212.093 241.385 219.881 260.25 231.906 254.99C243.295 250.008 235.818 232.148 224.015 236.743z"/>
<path style="fill:#757575; stroke:none;" d="M231 236L232 237L231 236z"/>
<path style="fill:#9ec1ad; stroke:none;" d="M232 236L233 237L232 236M255 236L256 237L255 236M77 237L78 238L77 237M108 237L109 238L108 237M113 237L114 238L113 237M125 237L126 238L125 237M182 237L183 238L182 237M187 237L188 238L187 237M199 237L200 238L199 237M204 237L205 238L204 237M221 237L222 238L221 237M238 237L239 238L238 237M256 237L257 238L256 237M309 237L309 263L310 263L309 237z"/>
<path style="fill:#038239; stroke:none;" d="M310 237L310 263L317 263L317 250C322.194 255.875 327.383 259.226 331 250L332 250L332 263L339 263L339 237C331.848 237.237 328.392 242.691 326 249L324 249C320.866 242.701 317.485 237.244 310 237z"/>
<path style="fill:#9ec1ad; stroke:none;" d="M316 237L317 238L316 237z"/>
<path style="fill:#757575; stroke:none;" d="M339 237L339 263L340 263L339 237M345 237L345 263L346 263L345 237z"/>
<path style="fill:#038239; stroke:none;" d="M346 237L346 263L363 263L363 257L353 257L353 253L362 253L362 247L353 247L353 243L363 243L363 237L346 237z"/>
<path style="fill:#9ec1ad; stroke:none;" d="M363 237L363 242L364 242L363 237z"/>
<path style="fill:#038239; stroke:none;" d="M368 237L368 263C374.28 263 382.471 264.172 387.892 260.272C395.371 254.892 394.091 242.559 385.985 238.573C380.687 235.967 373.726 237 368 237z"/>
<path style="fill:#9ec1ad; stroke:none;" d="M383.667 237.333L384.333 237.667L383.667 237.333z"/>
<path style="fill:#757575; stroke:none;" d="M397 237L397 263L398 263L397 237z"/>
<path style="fill:#038239; stroke:none;" d="M398 237L398 263L405 263L405 237L398 237z"/>
<path style="fill:#9ec1ad; stroke:none;" d="M417 237L418 238L417 237z"/>
<path style="fill:#038239; stroke:none;" d="M408 263L416 263C420.308 255.187 428.358 262.921 435 263C433.627 257.207 427.909 233.799 419.277 237.608C413.504 240.156 409.87 257.263 408 263z"/>
<path style="fill:#9ec1ad; stroke:none;" d="M425 237L426 238L425 237M78 238L79 239L78 238M126 238L127 239L126 238M130 238L131 239L130 238M220 238L221 239L220 238z"/>
<path style="fill:#757575; stroke:none;" d="M239 238L240 239L239 238z"/>
<path style="fill:#9ec1ad; stroke:none;" d="M332 238L333 239L332 238M386 238L387 239L386 238M79 239L80 240L79 239M83 239L84 240L83 239M107 239L108 240L107 239z"/>
<path style="fill:#757575; stroke:none;" d="M111 239L112 240L111 239z"/>
<path style="fill:#9ec1ad; stroke:none;" d="M127 239L128 240L127 239M181 239L182 240L181 239z"/>
<path style="fill:#757575; stroke:none;" d="M185 239L186 240L185 239z"/>
<path style="fill:#9ec1ad; stroke:none;" d="M201 239L202 240L201 239M205 239L206 240L205 239M215 239L216 240L215 239M219 239L220 240L219 239M253 239L254 240L253 239M331 239L332 240L331 239M388 239L389 240L388 239M426 239L427 240L426 239M80 240L81 241L80 240M110 240L111 241L110 240M131 240L132 241L131 240M184 240L185 241L184 240M202 240L203 241L202 240M236 240L237 241L236 240z"/>
<path style="fill:#757575; stroke:none;" d="M240 240L241 241L240 240M253 240L253 259L254 259L255 240L253 240z"/>
<path style="fill:#9ec1ad; stroke:none;" d="M258 240L259 241L258 240M318 240L319 241L318 240M389 240L390 241L389 240M416 240L417 241L416 240M84.3333 241.667L84.6667 242.333L84.3333 241.667M106.333 241.667L106.667 242.333L106.333 241.667M180.333 241.667L180.667 242.333L180.333 241.667M206.333 241.667L206.667 242.333L206.333 241.667M218 241L219 242L218 241M240 241L241 242L240 241M255 241L256 242L255 241z"/>
<path style="fill:#757575; stroke:none;" d="M259 241L260 242L259 241z"/>
<path style="fill:#9ec1ad; stroke:none;" d="M319 241L320 242L319 241M390 241L391 242L390 241M214 242L214 245L215 245L214 242M237.333 242.667L237.667 243.333L237.333 242.667M329 242L330 243L329 242M415 242L416 243L415 242M427 242L428 243L427 242M81 243L81 249L82 249L81 243M109 243L109 249L110 249L109 243M183 243L183 249L184 249L183 243M203 243L203 249L204 249L203 243M260 243L261 244L260 243z"/>
<path style="fill:#757575; stroke:none;" d="M320 243L321 244L320 243z"/>
<path style="fill:#9ec1ad; stroke:none;" d="M375 256L376 256L376 244L380 244C373.449 241.853 375 252.027 375 256M391 243L392 244L391 243z"/>
<path style="fill:#757575; stroke:none;" d="M415 243L416 244L415 243z"/>
<path style="fill:#9ec1ad; stroke:none;" d="M217 244L217 248L218 248L217 244M257 244L258 245L257 244M261 244L262 245L261 244M321 244L322 245L321 244z"/>
<path style="fill:#ffffff; stroke:none;" d="M376 244L376 256C386.913 255.402 387.123 244.27 376 244z"/>
<path style="fill:#9ec1ad; stroke:none;" d="M382 244L383 245L382 244M428 244L429 245L428 244M118 245L118 248L119 248L118 245M132 245L132 248L133 248L132 245z"/>
<path style="fill:#757575; stroke:none;" d="M241 245L242 246L241 245z"/>
<path style="fill:#9ec1ad; stroke:none;" d="M258 245L259 246L258 245M327 245L328 246L327 245M392 245L393 246L392 245M414 245L415 246L414 245z"/>
<path style="fill:#757575; stroke:none;" d="M428 245L429 246L428 245z"/>
<path style="fill:#9ec1ad; stroke:none;" d="M214 246L214 250L215 250L214 246M326 246L327 247L326 246M353 246L353 247L362 247L353 246M384 246L385 247L384 246M421 246L422 247L421 246z"/>
<path style="fill:#757575; stroke:none;" d="M259 247L260 248L259 247z"/>
<path style="fill:#9ec1ad; stroke:none;" d="M263 247L264 248L263 247M323 247L324 248L323 247M362 247L362 252L363 252L362 247M413 247L414 248L413 247z"/>
<path style="fill:#ffffff; stroke:none;" d="M421 247L419 253L424 253L421 247z"/>
<path style="fill:#757575; stroke:none;" d="M422 247L423 248L422 247z"/>
<path style="fill:#9ec1ad; stroke:none;" d="M429 247L430 248L429 247M237.333 248.667L237.667 249.333L237.333 248.667M260 248L261 249L260 248z"/>
<path style="fill:#757575; stroke:none;" d="M264 248L265 249L264 248z"/>
<path style="fill:#9ec1ad; stroke:none;" d="M324 248L325 249L324 248z"/>
<path style="fill:#757575; stroke:none;" d="M325 248L326 249L325 248M413 248L414 249L413 248z"/>
<path style="fill:#9ec1ad; stroke:none;" d="M420 248L421 249L420 248M422 248L423 249L422 248M84 249L85 250L84 249M106 249L107 250L106 249M128.333 249.667L128.667 250.333L128.333 249.667M180.333 249.667L180.667 250.333L180.333 249.667M206 249L207 250L206 249M385.333 249.667L385.667 250.333L385.333 249.667M430 249L431 250L430 249z"/>
<path style="fill:#757575; stroke:none;" d="M80 250L81 251L80 250M84 250L85 251L84 250M106 250L107 251L106 250z"/>
<path style="fill:#9ec1ad; stroke:none;" d="M131.333 250.667L131.667 251.333L131.333 250.667z"/>
<path style="fill:#757575; stroke:none;" d="M202 250L203 251L202 250M206 250L207 251L206 250z"/>
<path style="fill:#9ec1ad; stroke:none;" d="M218 250L219 251L218 250M240 250L241 251L240 250M265 250L266 251L265 250M317 250L317 263L318 263L317 250z"/>
<path style="fill:#757575; stroke:none;" d="M331 250L332 251L331 250z"/>
<path style="fill:#9ec1ad; stroke:none;" d="M412 250L413 251L412 250M423.333 250.667L423.667 251.333L423.333 250.667z"/>
<path style="fill:#757575; stroke:none;" d="M430 250L431 251L430 250z"/>
<path style="fill:#9ec1ad; stroke:none;" d="M110 251L111 252L110 251M184 251L185 252L184 251M215 251L216 252L215 251M236 251L237 252L236 251M262 251L263 252L262 251M266 251L267 252L266 251M419 251L420 252L419 251M79 252L80 253L79 252M83 252L84 253L83 252M107 252L108 253L107 252M111 252L112 253L111 252M181 252L182 253L181 252M185 252L186 253L185 252M201 252L202 253L201 252M205 252L206 253L205 252z"/>
<path style="fill:#757575; stroke:none;" d="M215 252L216 253L215 252z"/>
<path style="fill:#9ec1ad; stroke:none;" d="M219 252L220 253L219 252z"/>
<path style="fill:#757575; stroke:none;" d="M235 252L236 253L235 252z"/>
<path style="fill:#9ec1ad; stroke:none;" d="M239 252L240 253L239 252M263 252L264 253L263 252M267 252L268 253L267 252z"/>
<path style="fill:#757575; stroke:none;" d="M319 252L320 253L319 252z"/>
<path style="fill:#9ec1ad; stroke:none;" d="M330 252L331 253L330 252M411.333 252.667L411.667 253.333L411.333 252.667M431 252L432 253L431 252M78 253L79 254L78 253M112 253L113 254L112 253M126 253L127 254L126 253M130 253L131 254L130 253M186 253L187 254L186 253M200 253L201 254L200 253M216 253L217 254L216 253M220 253L221 254L220 253M329 253L330 254L329 253M384 253L385 254L384 253z"/>
<path style="fill:#757575; stroke:none;" d="M392 253L393 254L392 253z"/>
<path style="fill:#9ec1ad; stroke:none;" d="M419 253L419 254L424 254L419 253z"/>
<path style="fill:#757575; stroke:none;" d="M424 253L425 254L424 253z"/>
<path style="fill:#9ec1ad; stroke:none;" d="M77 254L78 255L77 254M113 254L114 255L113 254M129 254L130 255L129 254z"/>
<path style="fill:#757575; stroke:none;" d="M182 254L183 255L182 254z"/>
<path style="fill:#9ec1ad; stroke:none;" d="M187 254L188 255L187 254M199 254L200 255L199 254M221 254L222 255L221 254M233 254L234 255L233 254M238 254L239 255L238 254M264 254L265 255L264 254M320 254L321 255L320 254M383 254L384 255L383 254M392 254L393 255L392 254M432.333 254.667L432.667 255.333L432.333 254.667z"/>
<path style="fill:#757575; stroke:none;" d="M73 255L74 256L73 255z"/>
<path style="fill:#9ec1ad; stroke:none;" d="M74 255L75 256L74 255M109 255L110 256L109 255M115 255L116 256L115 255z"/>
<path style="fill:#757575; stroke:none;" d="M122 255L123 256L122 255z"/>
<path style="fill:#9ec1ad; stroke:none;" d="M123 255L124 256L123 255M128 255L129 256L128 255M183 255L184 256L183 255M189 255L190 256L189 255M197 255L198 256L197 255M203 255L204 256L203 255M223 255L224 256L223 255z"/>
<path style="fill:#757575; stroke:none;" d="M224 255L225 256L224 255z"/>
<path style="fill:#9ec1ad; stroke:none;" d="M231 255L232 256L231 255M237 255L238 256L237 255M265 255L266 256L265 255M321 255L322 256L321 255M381 255L382 256L381 255M410 255L411 256L410 255M110 256L111 257L110 256M127 256L128 257L127 256M184 256L185 257L184 256z"/>
<path style="fill:#757575; stroke:none;" d="M202 256L203 257L202 256z"/>
<path style="fill:#9ec1ad; stroke:none;" d="M236 256L237 257L236 256z"/>
<path style="fill:#757575; stroke:none;" d="M322 256L323 257L322 256z"/>
<path style="fill:#9ec1ad; stroke:none;" d="M327 256L328 257L327 256M391 256L392 257L391 256M78 257L79 258L78 257M112 257L113 258L112 257M126 257L127 258L126 257M186 257L187 258L186 257M200 257L201 258L200 257M220 257L221 258L220 257z"/>
<path style="fill:#757575; stroke:none;" d="M235 257L236 258L235 257z"/>
<path style="fill:#9ec1ad; stroke:none;" d="M363 257L363 263L364 263L363 257M433 257L434 258L433 257M74.6667 258.333L75.3333 258.667L74.6667 258.333M114 258L115 259L114 258M124 258L125 259L124 258M188 258L189 259L188 258M198 258L199 259L198 258M222 258L223 259L222 258M232.667 258.333L233.333 258.667L232.667 258.333M267 258L268 259L267 258M409 258L410 259L409 258z"/>
<path style="fill:#757575; stroke:none;" d="M117 259L118 260L117 259z"/>
<path style="fill:#9ec1ad; stroke:none;" d="M118 259L118 260L121 260L118 259z"/>
<path style="fill:#757575; stroke:none;" d="M121 259L122 260L121 259M191 259L192 260L191 259z"/>
<path style="fill:#9ec1ad; stroke:none;" d="M192 259L192 260L195 260L192 259z"/>
<path style="fill:#757575; stroke:none;" d="M195 259L196 260L195 259M225 259L226 260L225 259z"/>
<path style="fill:#9ec1ad; stroke:none;" d="M226 259L226 260L230 260L226 259M389 259L390 260L389 259M417 259L417 260L426 260L417 259M408 260L409 261L408 260M416.333 260.667L416.667 261.333L416.333 260.667M426 260L427 261L426 260M434 260L435 261L434 260M386 261L387 262L386 261z"/>
<path style="fill:#757575; stroke:none;" d="M408 261L409 262L408 261M382 262L383 263L382 262z"/>
<path style="fill:#9ec1ad; stroke:none;" d="M383 262L384 263L383 262z"/>
<path style="fill:#757575; stroke:none;" d="M427 262L428 263L427 262z"/>
<path style="fill:#9ec1ad; stroke:none;" d="M435 262L436 263L435 262z"/>
</svg>
