<?xml version="1.0" standalone="yes"?>
<svg xmlns="http://www.w3.org/2000/svg" width="221" height="51">
<path style="fill:#010101; stroke:none;" d="M0 0L0 51L221 51L221 0L0 0z"/>
<path style="fill:#757575; stroke:none;" d="M2 3L2 48L3 48C3 35.258 6.91001 14.7012 2 3z"/>
<path style="fill:#fefffe; stroke:none;" d="M3 3L3 48L218 48L218 3L3 3z"/>
<path style="fill:#757575; stroke:none;" d="M218 3L218 48L219 48C219 35.258 222.91 14.7012 218 3z"/>
<path style="fill:#038239; stroke:none;" d="M10 6L10 45L127 45L127 6L10 6z"/>
<path style="fill:#9ab7a6; stroke:none;" d="M43 16L43 17L46 17L43 16z"/>
<path style="fill:#757575; stroke:none;" d="M46 16L47 17L46 16z"/>
<path style="fill:#9ab7a6; stroke:none;" d="M80 16L80 17L84 17L80 16M97 16L97 17L101 17L97 16M16 17L16 30L17 30L16 17z"/>
<path style="fill:#fefffe; stroke:none;" d="M17 17L17 30C29.7725 29.4064 30.0665 17.1183 17 17z"/>
<path style="fill:#9ab7a6; stroke:none;" d="M24 17L25 18L24 17z"/>
<path style="fill:#fefffe; stroke:none;" d="M32 17L32 30L34 30L34 17L32 17M51 23L45 23L45 24L50 24C41.8241 33.7747 37.4528 17.5174 45.9105 18.8318C47.6339 19.0996 49.4127 20.3096 51 21C47.6043 15.775 37.4876 15.9046 38.6227 23.9853C39.8036 32.392 49.8822 30.0692 51 23z"/>
<path style="fill:#9ab7a6; stroke:none;" d="M48 17L49 18L48 17z"/>
<path style="fill:#fefffe; stroke:none;" d="M56 17L56 30L57 30L56 17z"/>
<path style="fill:#9ab7a6; stroke:none;" d="M57 17L57 30L58 30L57 17M61 17L62 18L61 17z"/>
<path style="fill:#fefffe; stroke:none;" d="M62 17L62 18L66 18L66 30L67 30L67 18L72 18L62 17M78.2785 18.0278C71.2791 22.4321 79.1291 33.1896 85.7708 28.2539C92.4647 23.2794 85.0473 13.7686 78.2785 18.0278M95.304 18.0278C88.651 22.3366 96.0924 33.1978 102.772 28.2539C109.592 23.2056 102.047 13.6609 95.304 18.0278M110 17L110 30L112 30L112 20L113 20L121 30L121 17L119 17L119 26L118 26L110 17z"/>
<path style="fill:#9ab7a6; stroke:none;" d="M112 17L113 18L112 17z"/>
<path style="fill:#038239; stroke:none;" d="M18 18L18 28C27.4515 27.6905 27.046 19.011 18 18z"/>
<path style="fill:#9ab7a6; stroke:none;" d="M22 18L23 19L22 18M42 18L43 19L42 18M67 18L67 30L68 30L67 18z"/>
<path style="fill:#038239; stroke:none;" d="M80.2245 18.7863C74.697 20.9842 78.0841 29.6644 83.7724 27.3773C89.1974 25.1961 85.8193 16.5616 80.2245 18.7863M97.1451 19.0718C91.5035 22.0618 96.3365 30.4469 101.682 26.9676C106.205 24.0235 102.121 16.4343 97.1451 19.0718z"/>
<path style="fill:#9ab7a6; stroke:none;" d="M101 18L102 19L101 18M24 19L25 20L24 19M48 19L49 20L48 19M50 19L51 20L50 19M95 19L96 20L95 19z"/>
<path style="fill:#038239; stroke:none;" d="M140 19L140 32L144 32L144 26L149 29L150 26L151 26L151 32L155 32L155 19L148 25L140 19z"/>
<path style="fill:#9ab7a6; stroke:none;" d="M151 19L152 20L151 19z"/>
<path style="fill:#038239; stroke:none;" d="M158 19L158 32L167 32L167 29L162 29L162 27L166 27L166 24L162 24L162 22L167 22L167 19L158 19M169 19L169 32C184.157 31.8729 184.422 19.0102 169 19z"/>
<path style="fill:#9ab7a6; stroke:none;" d="M178 19L179 20L178 19z"/>
<path style="fill:#038239; stroke:none;" d="M184 19L184 32L188 32L188 19L184 19M189 32L203 32C198.237 17.9207 193.807 17.7919 189 32z"/>
<path style="fill:#9ab7a6; stroke:none;" d="M25 20L26 21L25 20M40 20L41 21L40 20M77 20L78 21L77 20M86 20L87 21L86 20M103 20L104 21L103 20M105 20L106 21L105 20z"/>
<path style="fill:#757575; stroke:none;" d="M112 20L113 21L112 20z"/>
<path style="fill:#9ab7a6; stroke:none;" d="M114 20L115 21L114 20M144 20L145 21L144 20M193 20L194 21L193 20M27 21L28 22L27 21M38 21L39 22L38 21M75 21L76 22L75 21M88 21L89 22L88 21M92.3333 21.6667L92.6667 22.3333L92.3333 21.6667z"/>
<path style="fill:#fefffe; stroke:none;" d="M173 22L173 28C178.301 27.1126 177.773 23.4505 173 22z"/>
<path style="fill:#9ab7a6; stroke:none;" d="M176 22L177 23L176 22M199 22L200 23L199 22M44 23L45 24L44 23M51 23L52 24L51 23M148 23L149 24L148 23M162 23L162 24L166 24L162 23M177 23L178 24L177 23M92 24L93 25L92 24M115 24L116 25L115 24z"/>
<path style="fill:#757575; stroke:none;" d="M117 24L118 25L117 24z"/>
<path style="fill:#9ab7a6; stroke:none;" d="M195.667 24.3333L196.333 24.6667L195.667 24.3333M25 25L26 26L25 25z"/>
<path style="fill:#757575; stroke:none;" d="M27 25L28 26L27 25z"/>
<path style="fill:#9ab7a6; stroke:none;" d="M38 25L39 26L38 25M49 25L50 26L49 25M75 25L76 26L75 25M86 25L87 26L86 25M88 25L89 26L88 25M94 25L95 26L94 25M105 25L106 26L105 25M191 25L192 26L191 25z"/>
<path style="fill:#fefffe; stroke:none;" d="M195 25L195 27L197 27L197 25L195 25z"/>
<path style="fill:#9ab7a6; stroke:none;" d="M200 25L201 26L200 25M150 26L151 27L150 26z"/>
<path style="fill:#757575; stroke:none;" d="M76 27L77 28L76 27z"/>
<path style="fill:#9ab7a6; stroke:none;" d="M104 27L105 28L104 27M117 27L118 28L117 27M145 27L146 28L145 27M181 27L182 28L181 27M40 28L41 29L40 28M77 28L78 29L77 28M86 28L87 29L86 28M103 28L104 29L103 28z"/>
<path style="fill:#757575; stroke:none;" d="M146 28L147 29L146 28z"/>
<path style="fill:#9ab7a6; stroke:none;" d="M22 29L23 30L22 29M42 29L43 30L42 29M47 29L48 30L47 29M79 29L80 30L79 29M84 29L85 30L84 29M96 29L97 30L96 29M101 29L102 30L101 29M189 30L190 31L189 30M193 30L194 31L193 30M198 30L199 31L198 30M202 30L203 31L202 30M176 31L177 32L176 31z"/>
</svg>
